name C:\Users\u0101727\Documents\MyRepositories\upper-imu-dc\OpenSim\subject0\MA\ResultsMA\grid_4nodes_9dim\angles_23.mot
datacolumns 10
datarows 37
range 2375.01000000 2375.37000000
endheader 
time	clav_prot	clav_elev	scapula_abduction	scapula_elevation	scapula_upward_rot	scapula_winging	plane_elv	shoulder_elv	axial_rot	
       2375.01000000	        -50.00000000	         20.00000000	         15.00000000	          3.33333333	         90.00000000	         10.00000000	        -30.00000000	         63.33333333	         90.00000000	
       2375.02000000	        -38.33333333	         20.00000000	         15.00000000	          3.33333333	         90.00000000	         10.00000000	        -30.00000000	         63.33333333	         90.00000000	
       2375.03000000	        -26.66666667	         20.00000000	         15.00000000	          3.33333333	         90.00000000	         10.00000000	        -30.00000000	         63.33333333	         90.00000000	
       2375.04000000	        -15.00000000	         20.00000000	         15.00000000	          3.33333333	         90.00000000	         10.00000000	        -30.00000000	         63.33333333	         90.00000000	
       2375.05000000	        -50.00000000	        -10.00000000	        -40.00000000	         10.00000000	         90.00000000	         10.00000000	        -30.00000000	         63.33333333	         90.00000000	
       2375.06000000	        -38.33333333	        -10.00000000	        -40.00000000	         10.00000000	         90.00000000	         10.00000000	        -30.00000000	         63.33333333	         90.00000000	
       2375.07000000	        -26.66666667	        -10.00000000	        -40.00000000	         10.00000000	         90.00000000	         10.00000000	        -30.00000000	         63.33333333	         90.00000000	
       2375.08000000	        -15.00000000	        -10.00000000	        -40.00000000	         10.00000000	         90.00000000	         10.00000000	        -30.00000000	         63.33333333	         90.00000000	
       2375.09000000	        -50.00000000	          0.00000000	        -40.00000000	         10.00000000	         90.00000000	         10.00000000	        -30.00000000	         63.33333333	         90.00000000	
       2375.10000000	        -38.33333333	          0.00000000	        -40.00000000	         10.00000000	         90.00000000	         10.00000000	        -30.00000000	         63.33333333	         90.00000000	
       2375.11000000	        -26.66666667	          0.00000000	        -40.00000000	         10.00000000	         90.00000000	         10.00000000	        -30.00000000	         63.33333333	         90.00000000	
       2375.12000000	        -15.00000000	          0.00000000	        -40.00000000	         10.00000000	         90.00000000	         10.00000000	        -30.00000000	         63.33333333	         90.00000000	
       2375.13000000	        -50.00000000	         10.00000000	        -40.00000000	         10.00000000	         90.00000000	         10.00000000	        -30.00000000	         63.33333333	         90.00000000	
       2375.14000000	        -38.33333333	         10.00000000	        -40.00000000	         10.00000000	         90.00000000	         10.00000000	        -30.00000000	         63.33333333	         90.00000000	
       2375.15000000	        -26.66666667	         10.00000000	        -40.00000000	         10.00000000	         90.00000000	         10.00000000	        -30.00000000	         63.33333333	         90.00000000	
       2375.16000000	        -15.00000000	         10.00000000	        -40.00000000	         10.00000000	         90.00000000	         10.00000000	        -30.00000000	         63.33333333	         90.00000000	
       2375.17000000	        -50.00000000	         20.00000000	        -40.00000000	         10.00000000	         90.00000000	         10.00000000	        -30.00000000	         63.33333333	         90.00000000	
       2375.18000000	        -38.33333333	         20.00000000	        -40.00000000	         10.00000000	         90.00000000	         10.00000000	        -30.00000000	         63.33333333	         90.00000000	
       2375.19000000	        -26.66666667	         20.00000000	        -40.00000000	         10.00000000	         90.00000000	         10.00000000	        -30.00000000	         63.33333333	         90.00000000	
       2375.20000000	        -15.00000000	         20.00000000	        -40.00000000	         10.00000000	         90.00000000	         10.00000000	        -30.00000000	         63.33333333	         90.00000000	
       2375.21000000	        -50.00000000	        -10.00000000	        -21.66666667	         10.00000000	         90.00000000	         10.00000000	        -30.00000000	         63.33333333	         90.00000000	
       2375.22000000	        -38.33333333	        -10.00000000	        -21.66666667	         10.00000000	         90.00000000	         10.00000000	        -30.00000000	         63.33333333	         90.00000000	
       2375.23000000	        -26.66666667	        -10.00000000	        -21.66666667	         10.00000000	         90.00000000	         10.00000000	        -30.00000000	         63.33333333	         90.00000000	
       2375.24000000	        -15.00000000	        -10.00000000	        -21.66666667	         10.00000000	         90.00000000	         10.00000000	        -30.00000000	         63.33333333	         90.00000000	
       2375.25000000	        -50.00000000	          0.00000000	        -21.66666667	         10.00000000	         90.00000000	         10.00000000	        -30.00000000	         63.33333333	         90.00000000	
       2375.26000000	        -38.33333333	          0.00000000	        -21.66666667	         10.00000000	         90.00000000	         10.00000000	        -30.00000000	         63.33333333	         90.00000000	
       2375.27000000	        -26.66666667	          0.00000000	        -21.66666667	         10.00000000	         90.00000000	         10.00000000	        -30.00000000	         63.33333333	         90.00000000	
       2375.28000000	        -15.00000000	          0.00000000	        -21.66666667	         10.00000000	         90.00000000	         10.00000000	        -30.00000000	         63.33333333	         90.00000000	
       2375.29000000	        -50.00000000	         10.00000000	        -21.66666667	         10.00000000	         90.00000000	         10.00000000	        -30.00000000	         63.33333333	         90.00000000	
       2375.30000000	        -38.33333333	         10.00000000	        -21.66666667	         10.00000000	         90.00000000	         10.00000000	        -30.00000000	         63.33333333	         90.00000000	
       2375.31000000	        -26.66666667	         10.00000000	        -21.66666667	         10.00000000	         90.00000000	         10.00000000	        -30.00000000	         63.33333333	         90.00000000	
       2375.32000000	        -15.00000000	         10.00000000	        -21.66666667	         10.00000000	         90.00000000	         10.00000000	        -30.00000000	         63.33333333	         90.00000000	
       2375.33000000	        -50.00000000	         20.00000000	        -21.66666667	         10.00000000	         90.00000000	         10.00000000	        -30.00000000	         63.33333333	         90.00000000	
       2375.34000000	        -38.33333333	         20.00000000	        -21.66666667	         10.00000000	         90.00000000	         10.00000000	        -30.00000000	         63.33333333	         90.00000000	
       2375.35000000	        -26.66666667	         20.00000000	        -21.66666667	         10.00000000	         90.00000000	         10.00000000	        -30.00000000	         63.33333333	         90.00000000	
       2375.36000000	        -15.00000000	         20.00000000	        -21.66666667	         10.00000000	         90.00000000	         10.00000000	        -30.00000000	         63.33333333	         90.00000000	
       2375.37000000	        -50.00000000	        -10.00000000	         -3.33333333	         10.00000000	         90.00000000	         10.00000000	        -30.00000000	         63.33333333	         90.00000000	
